<?xml version="1.0" standalone="no"?>
<!DOCTYPE svg PUBLIC "-//W3C//DTD SVG 20010904//EN"
 "http://www.w3.org/TR/2001/REC-SVG-20010904/DTD/svg10.dtd">
<svg version="1.0" xmlns="http://www.w3.org/2000/svg"
 width="88.000000pt" height="88.000000pt" viewBox="0 0 88.000000 88.000000"
 preserveAspectRatio="xMidYMid meet">
<metadata>
Created by potrace 1.14, written by Peter Selinger 2001-2017
</metadata>
<g transform="translate(0.000000,88.000000) scale(0.100000,-0.100000)"
fill="#000000" stroke="none">
<path d="M0 440 l0 -440 440 0 440 0 0 440 0 440 -440 0 -440 0 0 -440z m190
375 c28 -14 50 -32 50 -39 0 -8 3 -22 7 -32 5 -15 2 -16 -25 -11 l-32 7 0
-255 c0 -140 3 -255 6 -255 3 0 14 5 25 10 18 10 19 23 19 220 0 138 4 210 10
210 6 0 33 -11 60 -25 46 -23 50 -28 50 -61 0 -38 2 -37 -49 -16 -11 4 -12
-28 -6 -206 4 -117 5 -212 1 -212 -3 0 -21 8 -41 17 -34 16 -37 16 -80 -5 -25
-12 -48 -22 -50 -22 -3 0 -5 158 -5 350 0 193 2 350 5 350 3 0 28 -11 55 -25z
m550 -325 c0 -192 -3 -350 -6 -350 -3 0 -28 10 -56 22 -47 20 -51 20 -78 5
-15 -10 -31 -17 -34 -17 -3 0 -6 95 -6 210 0 205 -1 210 -19 200 -33 -17 -42
-12 -39 23 3 28 11 36 63 64 l60 31 -3 -212 -3 -212 26 -12 c14 -7 28 -12 30
-12 3 0 5 117 5 260 0 255 0 260 -19 250 -31 -16 -41 -12 -41 18 0 24 8 32 53
54 28 15 55 27 60 27 4 1 7 -156 7 -349z m-300 269 c0 -14 -47 -59 -61 -59
-15 0 -10 32 8 52 18 20 53 24 53 7z"/>
</g>
</svg>
